<?xml version="1.0" standalone="no"?>
<!DOCTYPE svg PUBLIC "-//W3C//DTD SVG 20010904//EN" "http://www.w3.org/TR/2001/REC-SVG-20010904/DTD/svg10.dtd">
<!-- Created using Krita: https://krita.org -->
<svg xmlns="http://www.w3.org/2000/svg" 
    xmlns:xlink="http://www.w3.org/1999/xlink"
    xmlns:krita="http://krita.org/namespaces/svg/krita"
    xmlns:sodipodi="http://sodipodi.sourceforge.net/DTD/sodipodi-0.dtd"
    width="25pt"
    height="60pt"
    viewBox="0 0 368.64 368.64">
<defs/>
<path id="shape0" transform="translate(73.0799954399099, 97.3799939558103)" fill="#479abf" fill-rule="evenodd" stroke="#479abf" stroke-width="3.6" stroke-linecap="square" stroke-linejoin="bevel" d="M0 82.98C0.274058 57.4204 11.2037 31.264 29.07 11.61L46.35 28.7325C62.4054 12.2979 85.0236 0.403536 107.145 0L107.19 10.8C86.4515 10.409 66.9466 22.7278 54.45 36C57.33 39.15 60.93 41.67 63.81 44.82C54.7972 55.2939 48.8076 68.671 48.24 82.8C48.165 82.995 32.04 83.22 0 82.98Z" sodipodi:nodetypes="ccccccccc"/><path id="shape1" transform="translate(164.339989745413, 139.139991317858)" fill="#479abf" fill-rule="evenodd" stroke="#479abf" stroke-width="3.6" stroke-linecap="square" stroke-linejoin="bevel" d="M0.72 0L62.1 0.18L62.19 106.92L39.6 106.92L39.06 74.07L1.44 74.34L1.53 51.21L39.24 51.21L39.24 23.76L0 23.94C0 23.94 0.24 15.96 0.72 0Z" sodipodi:nodetypes="ccccccccccc"/><path id="shape2" transform="translate(108.899999695739, 249.389999303216)" fill="#479abf" fill-rule="evenodd" stroke="#479abf" stroke-width="3.6" stroke-linecap="square" stroke-linejoin="bevel" d="M16.56 0C13.248 3.33 7.728 8.88 0 16.65C17.7715 34.6708 47.6373 45.9147 71.37 46.17C71.412 35.142 71.442 27.252 71.46 22.5C52.716 22.2485 31.3908 13.478 16.56 0Z" sodipodi:nodetypes="ccccc"/><path id="shape3" transform="translate(241.953749347129, 24.0299999328616)" fill="#479abf" fill-rule="evenodd" stroke="#479abf" stroke-width="3.6" stroke-linecap="square" stroke-linejoin="bevel" d="M70.0988 156.285C77.0288 156.285 88.0163 156.24 104.186 156.24L122.096 149.13C122 135.888 117.721 118.063 113.636 104.22L84.7463 111.6C81.843 102.552 78.2267 93.8598 73.4063 85.77L98.2463 69.84C90.8012 56.9224 81.8904 45.1233 71.7863 35.19L51.5363 56.25C44.3017 48.7759 36.442 41.6491 27.0563 35.37L44.6063 11.61C38.3152 7.3682 31.9001 3.29154 24.8963 0C13.1363 21.462 5.04 36.657 0 45.855C43.5831 68.163 70.1222 111.929 70.0988 156.285Z" sodipodi:nodetypes="cccccccccccccc"/><path id="shape4" transform="translate(3.91499998906172, 3.84749998925032)" fill="#479abf" fill-rule="evenodd" stroke="#479abf" stroke-width="3.6" stroke-linecap="square" stroke-linejoin="bevel" d="M52.4138 176.445L18.09 176.512L0 169.29C1.56776 154.053 3.91992 138.991 8.7075 124.47L36.045 134.797C40.1688 123.036 45.2008 111.664 51.84 100.98L28.8225 82.1475C37.2017 69.9362 46.4662 58.225 57.78 47.925L78.57 68.7825C83.2634 64.413 88.259 60.1945 94.0275 56.3625L77.4225 32.265C81.5151 29.2352 85.7283 26.3861 90.18 23.895L101.182 38.205C112.928 31.8909 125.136 26.2919 138.847 23.0175L136.89 4.995C147.245 2.4408 158.035 0.754254 169.29 0L176.377 18.0675L176.445 52.5825C109.239 52.4821 52.2435 111.858 52.4138 176.445Z" sodipodi:nodetypes="ccccccccccccccccccc"/><path id="shape5" transform="translate(188.234999449945, 4.5899999469428)" fill="#ebb850" fill-rule="evenodd" stroke="#ebb850" stroke-width="3.6" stroke-linecap="square" stroke-linejoin="bevel" d="M0.09 51.9525L0 17.7525L7.245 0C16.7403 0.189966 29.1784 2.66232 38.925 4.86L35.415 22.05C44.0423 24.5261 52.8881 27.5851 62.055 31.5L46.5525 61.8075C31.0938 55.4676 15.7066 52.0044 0.09 51.9525Z" sodipodi:nodetypes="cccccccc"/><path id="shape6" transform="translate(109.282499694675, 73.4399997626289)" fill="#ebb850" fill-rule="evenodd" stroke="#ebb850" stroke-width="3.6" stroke-linecap="square" stroke-linejoin="bevel" d="M0 28.9575L11.16 40.4775C31.3775 22.5247 54.1764 15.0317 78.8625 15.975L78.975 34.7625C95.0354 34.5539 112.393 41.1381 126.157 53.7075L150.547 29.4975C131.752 12.0193 108.608 1.05366 75.0375 0C44.6023 0.749093 19.5898 10.4016 0 28.9575Z" sodipodi:nodetypes="cccccccc"/><path id="shape7" transform="translate(78.7049950889225, 278.437482621882)" fill="#ebb850" fill-rule="evenodd" stroke="#ebb850" stroke-width="3.6" stroke-linecap="square" stroke-linejoin="bevel" d="M101.587 34.11C101.601 40.995 101.736 52.5375 101.722 68.6475L94.5675 86.67C83.295 85.8125 72.0225 84.2197 60.75 81.7425L65.0025 63.72C49.6133 59.8524 35.893 54.2412 24.705 47.5875L14.5125 62.3025C9.12806 59.0841 3.96103 55.8929 0 52.8525L18.09 29.565C11.9555 25.065 6.2121 20.565 1.6875 16.065C9.387 8.5545 14.877 3.1995 18.1575 0C35.2653 17.1578 69.2265 34.4482 101.587 34.11Z" sodipodi:nodetypes="cccccccccccc"/><path id="shape8" transform="translate(188.189993865718, 249.007491883297)" fill="#b43c2c" fill-rule="evenodd" stroke="#b43c2c" stroke-width="3.6" stroke-linecap="square" stroke-linejoin="bevel" d="M0 22.6125C0.0135 27.405 0.036 35.3925 0.0675 46.575C25.0435 46.4794 54.8759 33.6421 72.225 16.9425C64.224 9.036 58.509 3.3885 55.08 0C43.6524 11.0521 23.4297 22.4471 0 22.6125Z" sodipodi:nodetypes="ccccc"/><path id="shape9" transform="translate(73.4399997814055, 188.189999490311)" fill="#b43c2c" fill-rule="evenodd" stroke="#b43c2c" stroke-width="3.6" stroke-linecap="square" stroke-linejoin="bevel" d="M0 0L47.88 0.09C48.0105 12.9309 55.1526 27.5764 63.7425 37.6875L29.07 71.01C9.14601 49.7661 0.213985 22.4734 0 0Z" sodipodi:nodetypes="ccccc"/><path id="shape10" transform="translate(3.9149998723859, 188.291243878515)" fill="#b43c2c" fill-rule="evenodd" stroke="#b43c2c" stroke-width="3.6" stroke-linecap="square" stroke-linejoin="bevel" d="M52.4363 0L17.82 0.03375L0 6.71625C0.0687059 17.926 4.47645 38.504 9.315 53.3588L36.72 42.6938C40.6338 54.4327 45.7888 65.3123 52.0425 75.4313L29.3625 94.4663C35.3788 103.382 41.7057 112.157 49.68 120.183L86.535 83.5988C65.2113 59.9261 53.1511 31.1422 52.4363 0Z" sodipodi:nodetypes="cccccccccc"/><path id="shape11" transform="translate(188.257488251001, 188.27998825429)" fill="#b43c2c" fill-rule="evenodd" stroke="#b43c2c" stroke-width="3.6" stroke-linecap="square" stroke-linejoin="bevel" d="M0 124.189L0.0225 158.31L7.3125 176.4C18.5513 175.505 29.1017 173.692 39.2625 171.36L35.4825 154.08C50.3477 150.009 64.1653 145 75.6225 137.88L86.3325 152.19C91.5462 149.424 96.5939 146.491 101.093 143.01L89.4825 129.33C98.5731 122.835 106.849 115.933 113.783 108.36L126.473 120.87C134.818 112.017 142.764 102.887 148.793 92.43L123.593 77.13C129.93 67.1227 135.508 56.892 138.803 45.99L166.973 54.36C171.851 39.1271 176.429 20.0908 176.513 7.2L158.423 0L123.863 2.93363e-09C123.378 68.3703 63.708 123.982 0 124.189Z" sodipodi:nodetypes="ccccccccccccccccccc"/>
</svg>
