<?xml version="1.0" standalone="no"?>
<!DOCTYPE svg PUBLIC "-//W3C//DTD SVG 20010904//EN" "http://www.w3.org/TR/2001/REC-SVG-20010904/DTD/svg10.dtd">
<!-- Created using Krita: https://krita.org -->
<svg xmlns="http://www.w3.org/2000/svg" 
    xmlns:xlink="http://www.w3.org/1999/xlink"
    xmlns:krita="http://krita.org/namespaces/svg/krita"
    xmlns:sodipodi="http://sodipodi.sourceforge.net/DTD/sodipodi-0.dtd"
    width="25pt"
    height="60pt"
    viewBox="0 0 368.64 368.64">
<defs/>
<path id="shape1" transform="translate(151.64999053725, 139.139991317858)" fill="#479abf" fill-rule="evenodd" stroke="#000000" stroke-width="3.6" stroke-linecap="square" stroke-linejoin="bevel" d="M0.72 0L101.25 0.09C101.253 3.89992 101.526 20.3098 101.53 24.1198C98.923 24.0598 65.2664 23.6398 62.1197 23.7598C62.1432 51.5399 62.1666 79.1399 62.19 106.92L39.6 106.92L39.06 74.07L1.44 74.34L1.53 51.21L39.24 51.21L39.24 23.76L0 23.94C0 23.94 0.24 15.96 0.72 0Z" sodipodi:nodetypes="ccccccccccccc"/><path id="shape0" transform="matrix(0.999579502633371 0 0 0.998877305782569 73.2487454285944 99.7199962851469)" fill="#479abf" fill-rule="evenodd" stroke="#000000" stroke-width="3.6" stroke-linecap="square" stroke-linejoin="bevel" d="M0 77.825C1.06074 52.4622 10.6958 30.2556 27.9108 10.4387L46.5864 29.3632C60.4355 12.786 82.3641 1.00432 104.14 0L104.23 12.8723C82.5619 14.9404 66.9127 24.9662 55.6769 38.6129C58.5569 41.7629 59.1406 41.3997 62.0206 44.5497C53.9719 55.0299 49.3828 63.6437 48.1725 77.78C45.6338 77.7387 31.3761 78.065 0 77.825Z" sodipodi:nodetypes="ccccccccc"/><path id="shape2" transform="translate(110.249999685681, 249.074999356525)" fill="#479abf" fill-rule="evenodd" stroke="#000000" stroke-width="3.6" stroke-linecap="square" stroke-linejoin="bevel" d="M18.675 0C15.363 3.33 7.728 10.5 0 18.27C17.9091 35.7403 43.5985 45.8699 67.23 46.53C67.272 35.502 67.167 25.092 67.185 20.34C47.1641 18.1684 31.808 10.992 18.675 0Z" sodipodi:nodetypes="ccccc"/><path id="shape3" transform="translate(244.721249244032, 24.1649999278325)" fill="#479abf" fill-rule="evenodd" stroke="#000000" stroke-width="3.6" stroke-linecap="square" stroke-linejoin="bevel" d="M67.3651 153.248C74.2951 153.248 85.8563 153.304 102.026 153.304L119.329 148.995C119.233 135.753 114.954 117.928 110.869 104.085L81.9788 111.465C79.0755 102.417 75.4592 93.7248 70.6388 85.635L95.4788 69.705C88.0337 56.7874 81.4854 47.2158 71.3813 37.2825L50.7263 58.0725C43.6973 50.3243 34.0028 41.0763 24.2888 35.235L41.8388 11.475C35.5477 7.2332 29.6051 3.29154 22.6013 0C11.5838 21.6645 5.04 38.142 0 47.34C39.8091 67.0572 66.2434 108.662 67.3651 153.248Z" sodipodi:nodetypes="cccccccccccccc"/><path id="shape4" transform="translate(3.9149999890617, 3.84749998925032)" fill="#479abf" fill-rule="evenodd" stroke="#000000" stroke-width="3.6" stroke-linecap="square" stroke-linejoin="bevel" d="M52.6725 173.588L18.09 173.61L0 169.29C1.56776 154.053 3.91992 138.991 8.7075 124.47L36.045 134.797C40.1688 123.036 45.2008 111.664 51.84 100.98L28.8225 82.1475C37.2017 69.9362 46.1512 58.45 57.465 48.15L78.165 68.9175C82.8584 64.548 88.259 60.1945 94.0275 56.3625L77.4225 32.265C81.5151 29.2352 85.7283 26.3861 90.18 23.895L101.182 38.205C112.928 31.8909 125.136 26.2919 138.847 23.0175L136.89 4.995C147.245 2.4408 158.035 0.754254 169.29 0L173.576 18.1687L173.576 52.785C108.137 54.9848 55.2923 110.269 52.6725 173.588Z" sodipodi:nodetypes="ccccccccccccccccccc"/><path id="shape5" transform="translate(191.204999427817, 4.5899999469428)" fill="#ebb850" fill-rule="evenodd" stroke="#000000" stroke-width="3.6" stroke-linecap="square" stroke-linejoin="bevel" d="M6.7055e-10 51.9075L0 17.3475L4.275 0C13.7703 0.189966 26.2084 2.66232 35.955 4.86L32.445 22.05C41.0723 24.5261 48.0281 26.1676 57.195 30.0825L42.3 61.5375C26.0293 55.6848 15.2702 52.1673 6.7055e-10 51.9075Z" sodipodi:nodetypes="cccccccc"/><path id="shape6" transform="translate(110.306499950212, 72.6299997973299)" fill="#ebb850" fill-rule="evenodd" stroke="#000000" stroke-width="3.6" stroke-linecap="square" stroke-linejoin="bevel" d="M0 28.2375L9.765 38.2725C31.316 17.6062 69.8693 11.613 80.8875 14.76L80.8425 39.555C96.0222 41.0111 105.199 45.4897 120.442 55.6875L148.027 28.5075C128.563 11.475 107.188 1.31784 74.0135 0C43.9179 0.378889 19.1328 11.7481 0 28.2375Z" sodipodi:nodetypes="cccccccc"/><path id="shape7" transform="translate(78.7049950889225, 279.607482613165)" fill="#ebb850" fill-rule="evenodd" stroke="#000000" stroke-width="3.6" stroke-linecap="square" stroke-linejoin="bevel" d="M98.797 32.625C98.811 39.51 98.721 51.0525 98.707 67.1625L94.5675 85.5C83.295 84.6425 72.0225 83.0497 60.75 80.5725L65.0025 62.55C49.6133 58.6824 35.893 53.0712 24.705 46.4175L14.5125 61.1325C9.12806 57.9141 3.96103 54.7229 0 51.6825L18.09 28.395C11.9555 23.895 7.8771 20.61 3.3525 16.11C11.052 8.5995 16.182 3.1995 19.4625 0C37.1347 16.5889 67.0712 32.3327 98.797 32.625Z" sodipodi:nodetypes="cccccccccccc"/><path id="shape8" transform="translate(191.174024110167, 249.333741871144)" fill="#b43c2c" fill-rule="evenodd" stroke="#000000" stroke-width="3.6" stroke-linecap="square" stroke-linejoin="bevel" d="M0.0309696 19.9013C0.0444696 24.6938 -0.0230304 35.1113 0.00846956 46.2938C25.3452 45.4888 50.801 33.6469 67.351 18.135C59.35 10.2285 51.925 3.3885 48.496 0C36.912 9.33349 23.1465 17.3965 0.0309696 19.9013Z" sodipodi:nodetypes="ccccc"/><path id="shape9" transform="translate(73.2149997830819, 191.204999467848)" fill="#b43c2c" fill-rule="evenodd" stroke="#000000" stroke-width="3.6" stroke-linecap="square" stroke-linejoin="bevel" d="M0 0L47.88 0.1575C48.5696 13.9769 54.2191 24.7053 61.9425 33.3L28.08 67.185C8.15601 45.9411 0.213985 22.4734 0 0Z" sodipodi:nodetypes="ccccc"/><path id="shape10" transform="translate(3.91499987238592, 191.19374385689)" fill="#b43c2c" fill-rule="evenodd" stroke="#000000" stroke-width="3.6" stroke-linecap="square" stroke-linejoin="bevel" d="M52.5038 0L18.0225 0.03375L0 3.81375C0.0687059 15.0235 4.47645 35.6015 9.315 50.4563L36.72 39.7913C40.6338 51.5302 45.7888 62.4098 52.0425 72.5288L27.54 88.9313C33.5563 97.8475 40.4457 107.95 48.42 115.976L85.5 79.0763C64.7733 55.2046 53.699 30.9821 52.5038 0Z" sodipodi:nodetypes="cccccccccc"/><path id="shape11" transform="translate(191.159988057882, 191.148738150354)" fill="#b43c2c" fill-rule="evenodd" stroke="#000000" stroke-width="3.6" stroke-linecap="square" stroke-linejoin="bevel" d="M0.0225 121.095L0 155.666L4.41 173.531C15.6488 172.636 26.1992 170.823 36.36 168.491L32.58 151.211C47.4452 147.14 61.2628 142.131 72.72 135.011L81.99 150.041C87.2037 147.275 92.5214 144.342 97.0205 140.861L86.58 126.461C95.6706 119.966 105.837 111.084 112.771 103.511L125.326 116.156C133.671 107.303 139.862 100.018 145.891 89.5613L120.691 74.2613C127.028 64.254 132.606 54.0233 135.901 43.1213L164.071 51.4913C168.949 36.2584 173.527 17.2221 173.611 4.33125L155.521 0.0675L120.994 0C117.725 67.1329 64.0886 117.367 0.0225 121.095Z" sodipodi:nodetypes="ccccccccccccccccccc"/><path id="shape12" transform="translate(227.204992791134, 146.767495053001)" fill="#ebb850" fill-rule="evenodd" stroke="#000000" stroke-width="3.6" stroke-linecap="square" stroke-linejoin="bevel" d="M0 43.9875C0.144266 48.9761 0.189266 56.5361 0.135 66.6675C6.72075 66.6225 12.6907 66.7575 18.945 66.7125C26.9805 76.2193 39.4953 90.7737 47.88 101.677C53.2239 94.4904 57.8733 86.1012 60.705 79.2675L47.925 63.6975C70.3861 53.5111 72.8459 32.5413 61.8075 0C50.9429 8.53589 43.4879 14.0859 39.4425 16.65C47.3095 41.9364 40.1334 44.002 0 43.9875Z" sodipodi:nodetypes="ccccccccc"/>
</svg>
